<svg width="14" height="13" viewBox="0 0 14 13" fill="none" xmlns="http://www.w3.org/2000/svg">
<path fill-rule="evenodd" clip-rule="evenodd" d="M13.3365 8.58239C13.3365 8.6875 13.2381 8.77271 13.1169 8.77271C12.9956 8.77271 12.8972 8.6875 12.8972 8.58239V0.824814C12.8972 0.579922 12.6674 0.380682 12.3848 0.380682H10.3804V1.36249H11.8408C11.9621 1.36249 12.0604 1.4477 12.0604 1.55281C12.0604 1.65793 11.9621 1.74314 11.8408 1.74314H10.3804V3.01874H10.7812C10.9025 3.01874 11.0008 3.10393 11.0008 3.20907C11.0008 3.31419 10.9025 3.3994 10.7812 3.3994H10.3804V4.67497H11.6212C11.7425 4.67497 11.8408 4.76018 11.8408 4.8653C11.8408 4.97042 11.7425 5.05563 11.6212 5.05563H10.3804V6.3312H10.7812C10.9025 6.3312 11.0008 6.41639 11.0008 6.52153C11.0008 6.62665 10.9025 6.71186 10.7812 6.71186H10.3804V7.98743H11.6212C11.7425 7.98743 11.8408 8.07264 11.8408 8.17776C11.8408 8.28288 11.7425 8.36809 11.6212 8.36809H10.3804V9.64366H10.7812C10.9025 9.64366 11.0008 9.72887 11.0008 9.83399C11.0008 9.93911 10.9025 10.0243 10.7812 10.0243H10.3804V11.2999H11.6212C11.7425 11.2999 11.8408 11.3851 11.8408 11.4902C11.8408 11.5953 11.7425 11.6805 11.6212 11.6805H10.3804V12.6193H12.3848C12.6674 12.6193 12.8972 12.4201 12.8972 12.1752V9.42942C12.8972 9.3243 12.9956 9.23909 13.1169 9.23909C13.2381 9.23909 13.3365 9.32427 13.3365 9.42942V12.1752C13.3365 12.63 12.9096 12.9999 12.3848 12.9999H2.84619C2.7249 12.9999 2.62658 12.9147 2.62658 12.8096C2.62658 12.7045 2.7249 12.6193 2.84619 12.6193H9.9411V0.380656H0.95168C0.675674 0.380656 0.439219 0.680697 0.439219 0.926301V12.1752C0.439219 12.4201 0.669111 12.6193 0.95168 12.6193H1.84257C1.96386 12.6193 2.06218 12.7045 2.06218 12.8096C2.06218 12.9148 1.96386 13 1.84257 13H0.95168C0.426943 13 0 12.63 0 12.1752V0.926301C0 0.489049 0.406992 0 0.95168 0H12.3848C12.9096 0 13.3365 0.369992 13.3365 0.824789V8.58239ZM3.61128 7.88077C3.72814 7.39886 4.02718 6.95404 4.4533 6.62825C4.62504 6.49693 4.67004 6.2806 4.56272 6.10216L4.27661 5.62641C4.22054 5.53318 4.26228 5.41824 4.36986 5.36966C4.47738 5.32104 4.61004 5.35727 4.66611 5.45046L4.95223 5.9262C5.15312 6.26021 5.06742 6.66631 4.74384 6.91369C4.3882 7.1856 4.13865 7.55686 4.04112 7.95905L3.90973 8.50091C3.79386 8.97864 3.73512 9.4684 3.73512 9.95661C3.73512 9.96646 3.74437 9.97446 3.75571 9.97446H8.78675C8.79791 9.97446 8.80734 9.96692 8.80734 9.95798C8.80746 9.46939 8.74872 8.97915 8.63273 8.50089L8.50134 7.95908C8.40407 7.55801 8.15549 7.18753 7.80144 6.91593C7.47656 6.66667 7.3897 6.25968 7.59023 5.92623L8.04475 5.17048C8.23192 4.85924 8.33086 4.50918 8.33086 4.15818V3.56784C8.33086 3.56094 8.32641 3.55479 8.3192 3.55177L6.95314 2.9786C6.7955 2.91249 6.69366 2.7717 6.69366 2.61991V2.48399H5.84883V2.61988C5.84883 2.77167 5.74699 2.91246 5.58935 2.97858L4.22326 3.55177C4.21623 3.55474 4.21166 3.56106 4.21166 3.56784V4.15818C4.21166 4.35861 4.24339 4.55808 4.306 4.751C4.33884 4.8522 4.27078 4.95729 4.15403 4.98576C4.03723 5.01425 3.916 4.95524 3.88315 4.85406C3.80971 4.62757 3.77244 4.39345 3.77244 4.15818V3.56784C3.77244 3.41608 3.87428 3.27532 4.03187 3.20915L5.39801 2.63593C5.40507 2.63296 5.40964 2.62666 5.40964 2.61988V2.41181C5.40964 2.24172 5.56931 2.10331 5.7656 2.10331H6.05165V1.91532C5.80093 1.83709 5.62113 1.62894 5.62113 1.38504C5.62113 1.07433 5.91278 0.821594 6.27126 0.821594C6.62974 0.821594 6.92139 1.07436 6.92139 1.38504C6.92139 1.62894 6.74159 1.83709 6.49087 1.91532V2.10331H6.77692C6.97318 2.10331 7.13288 2.24169 7.13288 2.41181V2.61988C7.13288 2.62669 7.13742 2.63299 7.14448 2.63593L8.5106 3.20913C8.66821 3.27532 8.77005 3.41608 8.77005 3.56784V4.15818C8.77005 4.57022 8.65392 4.98109 8.43419 5.34643L7.97968 6.10218C7.87254 6.2803 7.91895 6.49772 8.0925 6.63089C8.51672 6.95632 8.81455 7.40023 8.93112 7.88075L9.06252 8.42258C9.18472 8.92656 9.24662 9.44318 9.2465 9.95808C9.24644 10.177 9.04017 10.3551 8.78666 10.3551H6.49081V10.6056C6.49081 10.7107 6.39249 10.7959 6.2712 10.7959C6.14991 10.7959 6.05159 10.7107 6.05159 10.6056V10.3551H3.75574C3.50218 10.3551 3.2959 10.1764 3.2959 9.95663C3.2959 9.44217 3.3578 8.92603 3.47988 8.42261L3.61128 7.88077ZM6.48208 1.38504C6.48208 1.28426 6.38748 1.20228 6.2712 1.20228C6.15492 1.20228 6.06032 1.28426 6.06032 1.38504C6.06032 1.48584 6.15492 1.56782 6.2712 1.56782C6.38748 1.56782 6.48208 1.48584 6.48208 1.38504ZM1.57196 9.37385C1.48621 9.29955 1.34714 9.29955 1.26139 9.37385C1.17561 9.44819 1.17561 9.56869 1.26139 9.64304L1.80443 10.1137C1.84732 10.1508 1.90352 10.1694 1.95974 10.1694C2.01596 10.1694 2.07215 10.1508 2.11504 10.1137L2.65809 9.64304C2.74387 9.56869 2.74387 9.44819 2.65809 9.37385C2.57234 9.29955 2.43326 9.29955 2.34751 9.37385L2.17938 9.51956V1.82775L2.34751 1.97347C2.3904 2.01062 2.44659 2.0292 2.50281 2.0292C2.55903 2.0292 2.61523 2.01062 2.65812 1.97347C2.7439 1.89913 2.7439 1.77862 2.65812 1.70428L2.11507 1.23364C2.02932 1.15934 1.89024 1.15934 1.80449 1.23364L1.26136 1.70428C1.17558 1.77862 1.17558 1.89913 1.26136 1.97347C1.34711 2.04776 1.48618 2.04776 1.57193 1.97347L1.74007 1.82775V9.51956L1.57196 9.37385ZM8.39473 12.0497C8.33851 12.0497 8.28232 12.0311 8.23943 11.994C8.15364 11.9196 8.15364 11.7991 8.23943 11.7248L8.40756 11.5791H4.20103L4.36916 11.7248C4.45494 11.7991 4.45494 11.9196 4.36916 11.994C4.32627 12.0311 4.27008 12.0497 4.21386 12.0497C4.15764 12.0497 4.10145 12.0311 4.05856 11.994L3.51551 11.5233C3.42973 11.449 3.42973 11.3285 3.51551 11.2541L4.05856 10.7835C4.14431 10.7092 4.28338 10.7092 4.36913 10.7835C4.45491 10.8578 4.45491 10.9784 4.36913 11.0527L4.201 11.1984H8.40759L8.23946 11.0527C8.15367 10.9784 8.15367 10.8578 8.23946 10.7835C8.32521 10.7092 8.46428 10.7092 8.55003 10.7835L9.09308 11.2541C9.17886 11.3285 9.17886 11.449 9.09308 11.5233L8.55003 11.994C8.50714 12.0311 8.45095 12.0497 8.39473 12.0497Z" fill="black"/>
</svg>
