<svg width="16" height="13" viewBox="0 0 16 13" fill="none" xmlns="http://www.w3.org/2000/svg">
<g clip-path="url(#clip0)">
<path d="M14.0077 8.77271C14.129 8.77271 14.2273 8.6875 14.2273 8.58239V0.824789C14.2273 0.369992 13.8004 0 13.2757 0H1.84255C1.29786 0 0.890869 0.489049 0.890869 0.926301V12.1752C0.890869 12.63 1.31781 13 1.84255 13H2.73344C2.85473 13 2.95305 12.9148 2.95305 12.8096C2.95305 12.7045 2.85473 12.6193 2.73344 12.6193H1.84255C1.55998 12.6193 1.33009 12.4201 1.33009 12.1752V0.926301C1.33009 0.680697 1.56654 0.380656 1.84255 0.380656H10.832V12.6193H3.73706C3.61577 12.6193 3.51745 12.7045 3.51745 12.8096C3.51745 12.9147 3.61577 12.9999 3.73706 12.9999H13.2757C13.8004 12.9999 14.2273 12.63 14.2273 12.1752V9.42942C14.2273 9.32427 14.129 9.23909 14.0077 9.23909C13.8864 9.23909 13.7881 9.3243 13.7881 9.42942V12.1752C13.7881 12.4201 13.5582 12.6193 13.2757 12.6193H11.2712V11.6805H12.5121C12.6334 11.6805 12.7317 11.5953 12.7317 11.4902C12.7317 11.3851 12.6334 11.2999 12.5121 11.2999H11.2712V10.0243H11.672C11.7933 10.0243 11.8916 9.93911 11.8916 9.83399C11.8916 9.72887 11.7933 9.64366 11.672 9.64366H11.2712V8.36809H12.5121C12.6334 8.36809 12.7317 8.28288 12.7317 8.17776C12.7317 8.07264 12.6334 7.98743 12.5121 7.98743H11.2712V6.71186H11.672C11.7933 6.71186 11.8916 6.62665 11.8916 6.52153C11.8916 6.41639 11.7933 6.3312 11.672 6.3312H11.2712V5.05563H12.5121C12.6334 5.05563 12.7317 4.97042 12.7317 4.8653C12.7317 4.76018 12.6334 4.67497 12.5121 4.67497H11.2712V3.3994H11.672C11.7933 3.3994 11.8916 3.31419 11.8916 3.20907C11.8916 3.10393 11.7933 3.01874 11.672 3.01874H11.2712V1.74314H12.7317C12.853 1.74314 12.9513 1.65793 12.9513 1.55281C12.9513 1.4477 12.853 1.36249 12.7317 1.36249H11.2712V0.380682H13.2757C13.5582 0.380682 13.7881 0.579922 13.7881 0.824814V8.58239C13.7881 8.6875 13.8864 8.77271 14.0077 8.77271Z" fill="black"/>
<path d="M5.34417 6.62825C4.91805 6.95404 4.61901 7.39886 4.50215 7.88077L4.37075 8.42261C4.24867 8.92603 4.18677 9.44217 4.18677 9.95663C4.18677 10.1764 4.39305 10.3551 4.64661 10.3551H6.94246V10.6056C6.94246 10.7107 7.04078 10.7959 7.16207 10.7959C7.28336 10.7959 7.38168 10.7107 7.38168 10.6056V10.3551H9.67753C9.93104 10.3551 10.1373 10.177 10.1374 9.95808C10.1375 9.44318 10.0756 8.92656 9.95339 8.42258L9.82199 7.88075C9.70542 7.40023 9.40759 6.95632 8.98337 6.63089C8.80981 6.49772 8.76341 6.2803 8.87055 6.10218L9.32506 5.34643C9.54479 4.98109 9.66092 4.57022 9.66092 4.15818V3.56784C9.66092 3.41608 9.55908 3.27532 9.40146 3.20913L8.03535 2.63593C8.02829 2.63299 8.02375 2.62669 8.02375 2.61989V2.41181C8.02375 2.24169 7.86405 2.10331 7.66779 2.10331H7.38174V1.91532C7.63246 1.83709 7.81226 1.62894 7.81226 1.38504C7.81226 1.07436 7.52061 0.821594 7.16213 0.821594C6.80365 0.821594 6.512 1.07433 6.512 1.38504C6.512 1.62894 6.6918 1.83709 6.94252 1.91532V2.10331H6.65646C6.46018 2.10331 6.30051 2.24172 6.30051 2.41181V2.61989C6.30051 2.62666 6.29594 2.63296 6.28888 2.63593L4.92273 3.20915C4.76515 3.27532 4.66331 3.41608 4.66331 3.56784V4.15818C4.66331 4.39345 4.70058 4.62757 4.77402 4.85406C4.80687 4.95524 4.9281 5.01425 5.0449 4.98576C5.16165 4.95729 5.22971 4.8522 5.19687 4.751C5.13426 4.55808 5.10253 4.35861 5.10253 4.15818V3.56784C5.10253 3.56106 5.1071 3.55474 5.11413 3.55177L6.48021 2.97858C6.63786 2.91246 6.7397 2.77167 6.7397 2.61989V2.48399H7.58453V2.61991C7.58453 2.7717 7.68637 2.91249 7.84401 2.9786L9.21007 3.55177C9.21728 3.55479 9.22173 3.56094 9.22173 3.56784V4.15818C9.22173 4.50918 9.12279 4.85924 8.93562 5.17048L8.4811 5.92623C8.28057 6.25968 8.36743 6.66667 8.6923 6.91593C9.04636 7.18753 9.29494 7.55801 9.39221 7.95908L9.5236 8.50089C9.63959 8.97915 9.69833 9.46939 9.69821 9.95798C9.69821 9.96692 9.68878 9.97446 9.67762 9.97446H4.64658C4.63524 9.97446 4.62599 9.96646 4.62599 9.95661C4.62599 9.4684 4.68473 8.97864 4.8006 8.50091L4.93199 7.95905C5.02952 7.55686 5.27907 7.1856 5.63471 6.91369C5.95829 6.66631 6.04398 6.26021 5.8431 5.9262L5.55698 5.45046C5.50091 5.35727 5.36825 5.32104 5.26073 5.36966C5.15315 5.41824 5.11141 5.53318 5.16748 5.62641L5.45359 6.10216C5.56091 6.2806 5.51591 6.49693 5.34417 6.62825ZM7.16207 1.20228C7.27835 1.20228 7.37295 1.28426 7.37295 1.38504C7.37295 1.48584 7.27835 1.56782 7.16207 1.56782C7.04579 1.56782 6.95119 1.48584 6.95119 1.38504C6.95119 1.28426 7.04579 1.20228 7.16207 1.20228Z" fill="black"/>
<path d="M2.46283 9.37385C2.37708 9.29955 2.23801 9.29955 2.15226 9.37385C2.06647 9.44819 2.06647 9.56869 2.15226 9.64304L2.6953 10.1137C2.73819 10.1508 2.79439 10.1694 2.85061 10.1694C2.90683 10.1694 2.96302 10.1508 3.00591 10.1137L3.54896 9.64304C3.63474 9.56869 3.63474 9.44819 3.54896 9.37385C3.4632 9.29955 3.32413 9.29955 3.23838 9.37385L3.07025 9.51956V1.82775L3.23838 1.97347C3.28127 2.01062 3.33746 2.0292 3.39368 2.0292C3.4499 2.0292 3.5061 2.01062 3.54899 1.97347C3.63477 1.89913 3.63477 1.77862 3.54899 1.70428L3.00594 1.23364C2.92019 1.15934 2.78111 1.15934 2.69536 1.23364L2.15223 1.70428C2.06645 1.77862 2.06645 1.89913 2.15223 1.97347C2.23798 2.04776 2.37705 2.04776 2.4628 1.97347L2.63094 1.82775V9.51956L2.46283 9.37385Z" fill="black"/>
<path d="M9.13017 11.994C9.17306 12.0311 9.22926 12.0497 9.28548 12.0497C9.3417 12.0497 9.39789 12.0311 9.44078 11.994L9.98383 11.5233C10.0696 11.449 10.0696 11.3285 9.98383 11.2541L9.44078 10.7835C9.35503 10.7092 9.21595 10.7092 9.1302 10.7835C9.04442 10.8578 9.04442 10.9784 9.1302 11.0527L9.29834 11.1984H5.09174L5.25988 11.0527C5.34566 10.9784 5.34566 10.8578 5.25988 10.7835C5.17413 10.7092 5.03505 10.7092 4.9493 10.7835L4.40625 11.2541C4.32047 11.3285 4.32047 11.449 4.40625 11.5233L4.9493 11.994C4.99219 12.0311 5.04838 12.0497 5.10461 12.0497C5.16083 12.0497 5.21702 12.0311 5.25991 11.994C5.34569 11.9196 5.34569 11.7991 5.25991 11.7248L5.09177 11.5791H9.29831L9.13017 11.7248C9.04439 11.7991 9.04439 11.9196 9.13017 11.994Z" fill="black"/>
</g>
<defs>
<clipPath id="clip0">
<rect width="15" height="13" fill="white" transform="translate(0.890869)"/>
</clipPath>
</defs>
</svg>
